<svg width="159" height="31" viewBox="0 0 159 31" fill="none" xmlns="http://www.w3.org/2000/svg">
<g clip-path="url(#clip0)">
<path d="M9.86341 0C7.42667 0.00136207 5.0902 0.970307 3.36765 2.69382C1.6451 4.41734 0.677459 6.75435 0.67746 9.19108L0.67746 18.377C0.734198 20.7764 1.72718 23.0583 3.44418 24.7352C5.16118 26.4121 7.46598 27.3508 9.86597 27.3508C12.266 27.3508 14.5708 26.4121 16.2878 24.7352C18.0048 23.0583 18.9978 20.7764 19.0545 18.377V9.19108H16.7529C16.7525 10.6155 16.3107 12.0048 15.4882 13.1678C14.6656 14.3307 13.5029 15.2101 12.1599 15.685V0H9.86341ZM16.7529 15.2637V18.377C16.7529 20.2042 16.027 21.9566 14.735 23.2486C13.443 24.5406 11.6906 25.2665 9.86341 25.2665C8.03621 25.2665 6.28385 24.5406 4.99182 23.2486C3.6998 21.9566 2.97395 20.2042 2.97395 18.377V15.2637C3.13321 15.4486 3.30275 15.6233 3.4877 15.7774C4.37913 16.6422 5.43677 17.3172 6.59659 17.7614C7.75642 18.2056 8.99432 18.4099 10.2354 18.3619C11.4764 18.3139 12.6949 18.0145 13.8169 17.482C14.9389 16.9494 15.9412 16.1948 16.7631 15.2637H16.7529ZM9.86341 16.0805C8.89346 16.0822 7.93416 15.8784 7.04866 15.4826C6.16315 15.0867 5.37151 14.5079 4.72585 13.7841C4.19343 13.1932 3.76911 12.5132 3.47229 11.7753C3.0492 10.7288 2.88953 9.5944 3.0073 8.47177C3.12507 7.34914 3.51667 6.27259 4.14772 5.33667C4.77877 4.40075 5.62996 3.63409 6.62654 3.104C7.62312 2.57392 8.73462 2.29663 9.86341 2.29649V16.0805Z" fill="white"/>
<path d="M39.3016 18.5774H28.6001C28.7282 19.6033 29.2383 20.5432 30.0286 21.2097C30.8189 21.8762 31.8314 22.2204 32.8642 22.1737C33.6209 22.1976 34.3703 22.0199 35.0356 21.6588C35.701 21.2977 36.2583 20.7661 36.6506 20.1187C37.3236 20.4012 38.1456 20.6838 38.8495 20.9664C37.7192 23.2834 35.32 24.4702 32.782 24.4702C29.0265 24.4702 26.0313 21.7318 26.0313 17.5499C26.0313 13.3679 29.0265 10.7169 32.782 10.7169C36.5376 10.7169 39.3324 13.373 39.3324 17.5499C39.3324 17.8735 39.3324 18.2948 39.3016 18.5774ZM36.7893 16.5737C36.7029 15.5832 36.2385 14.6639 35.4923 14.0067C34.7461 13.3495 33.7756 13.0048 32.782 13.0442C31.7671 12.9916 30.7702 13.3271 29.9936 13.9826C29.2169 14.638 28.7187 15.5644 28.6001 16.5737H36.7893Z" fill="white"/>
<path d="M44.3004 24.1979H41.7779V3.08253H44.3467V15.613L48.8883 10.9892H52.3921L46.7408 16.6919L53.7021 24.1979H50.3114L44.3004 17.7605V24.1979Z" fill="white"/>
<path d="M53.3888 17.5602C53.3888 13.3833 56.5227 10.7272 60.2782 10.7272C64.0338 10.7272 67.1934 13.3833 67.1934 17.5602C67.2185 18.4824 67.0586 19.4004 66.7231 20.2598C66.3875 21.1192 65.8831 21.9027 65.2397 22.5639C64.5962 23.2252 63.8268 23.7507 62.9769 24.1096C62.1269 24.4685 61.2137 24.6534 60.2911 24.6534C59.3684 24.6534 58.4552 24.4685 57.6052 24.1096C56.7553 23.7507 55.9859 23.2252 55.3424 22.5639C54.699 21.9027 54.1946 21.1192 53.8591 20.2598C53.5235 19.4004 53.3636 18.4824 53.3888 17.5602ZM64.6246 17.5602C64.6246 16.4074 64.1667 15.3019 63.3516 14.4868C62.5365 13.6717 61.4309 13.2138 60.2782 13.2138C59.1255 13.2138 58.02 13.6717 57.2049 14.4868C56.3898 15.3019 55.9318 16.4074 55.9318 17.5602C55.9318 18.7129 56.3898 19.8184 57.2049 20.6335C58.02 21.4486 59.1255 21.9065 60.2782 21.9065C61.4309 21.9065 62.5365 21.4486 63.3516 20.6335C64.1667 19.8184 64.6246 18.7129 64.6246 17.5602Z" fill="white"/>
<path d="M72.0483 24.1979H69.5207V3.08253H72.0586V15.613L76.6053 10.9892H80.1092L74.4578 16.6919L81.4501 24.1979H78.0644L72.0483 17.7605V24.1979Z" fill="white"/>
<path d="M91.9615 11.0098H94.5303V24.1979H91.9615V22.2199C91.1703 23.8023 89.3054 24.4804 87.8515 24.4804C84.548 24.4804 82.7139 22.3329 82.7704 18.6339V11.0098H85.3392V18.4644C85.3392 20.6684 86.4129 21.9682 88.2214 21.9682C90.0298 21.9682 91.9461 20.9407 91.9461 18.1253L91.9615 11.0098Z" fill="white"/>
<path d="M100.541 24.1979H97.9724V3.08253H100.541V12.9877C101.42 11.4927 103.254 10.7272 105.165 10.7272C108.808 10.7272 111.844 13.3833 111.844 17.591C111.844 21.7986 108.761 24.4804 105.165 24.4804C103.331 24.4804 101.44 23.6584 100.541 22.1634V24.1979ZM104.97 21.9682C105.543 21.9736 106.112 21.8622 106.641 21.6406C107.17 21.4191 107.648 21.0922 108.047 20.6797C108.445 20.2672 108.756 19.7779 108.959 19.2416C109.162 18.7053 109.254 18.1331 109.229 17.5602C109.255 16.9912 109.162 16.423 108.958 15.8912C108.754 15.3594 108.443 14.8756 108.043 14.4699C107.643 14.0643 107.163 13.7456 106.635 13.5339C106.106 13.3221 105.539 13.2219 104.97 13.2395C104.395 13.2227 103.823 13.3226 103.288 13.5331C102.753 13.7436 102.267 14.0603 101.858 14.4641C101.448 14.8679 101.125 15.3505 100.908 15.8826C100.691 16.4147 100.583 16.9854 100.593 17.5602C100.566 18.1435 100.66 18.7261 100.871 19.2709C101.081 19.8158 101.402 20.3111 101.813 20.7255C102.225 21.1398 102.718 21.4643 103.261 21.6782C103.804 21.8921 104.386 21.9908 104.97 21.9682Z" fill="white"/>
<path d="M116.694 24.1979H114.151V3.08253H116.694V15.613L121.235 10.9892H124.739L119.088 16.6919L126.095 24.1979H122.705L116.694 17.7605V24.1979Z" fill="white"/>
<path d="M129.116 4.49021C129.346 4.47216 129.577 4.5018 129.794 4.57726C130.012 4.65273 130.212 4.77239 130.381 4.92872C130.55 5.08505 130.685 5.27468 130.777 5.48568C130.869 5.69668 130.917 5.92448 130.917 6.15478C130.917 6.38508 130.869 6.61289 130.777 6.82389C130.685 7.03488 130.55 7.22451 130.381 7.38084C130.212 7.53718 130.012 7.65683 129.794 7.7323C129.577 7.80776 129.346 7.8374 129.116 7.81935C128.664 7.83181 128.226 7.66479 127.896 7.35479C127.567 7.04479 127.374 6.61704 127.359 6.16506C127.364 5.93949 127.413 5.71707 127.504 5.51061C127.595 5.30414 127.726 5.11771 127.889 4.96204C128.053 4.80637 128.245 4.68455 128.456 4.60357C128.666 4.52259 128.891 4.48407 129.116 4.49021ZM130.385 11.0098H127.842V24.1979H130.385V11.0098Z" fill="white"/>
<path d="M142.5 12.9209C143.352 11.4619 145.202 10.6347 146.995 10.6347C150.524 10.6347 153.448 13.3063 153.448 17.3906C153.448 21.475 150.524 24.0694 146.995 24.0694C145.202 24.0694 143.352 23.3502 142.5 21.8654V31H139.987V10.907H142.5V12.9209ZM146.748 21.6086C147.303 21.6297 147.856 21.5356 148.373 21.332C148.889 21.1284 149.358 20.8198 149.749 20.4258C150.14 20.0317 150.445 19.5608 150.645 19.0428C150.845 18.5248 150.935 17.9709 150.91 17.4163C150.91 16.3045 150.468 15.2381 149.682 14.4519C148.896 13.6657 147.829 13.2241 146.718 13.2241C145.606 13.2241 144.539 13.6657 143.753 14.4519C142.967 15.2381 142.525 16.3045 142.525 17.4163C142.514 17.9726 142.616 18.5253 142.824 19.0411C143.033 19.5569 143.344 20.025 143.739 20.4169C144.134 20.8089 144.604 21.1166 145.121 21.3215C145.639 21.5263 146.192 21.624 146.748 21.6086Z" fill="#A8C2BD"/>
<path d="M158.483 3.08253V23.7869H155.975V3.08253H158.483Z" fill="#A8C2BD"/>
<path d="M135.281 20.8636C135.508 20.851 135.735 20.8848 135.948 20.9629C136.161 21.041 136.356 21.1617 136.521 21.3178C136.686 21.4738 136.818 21.6619 136.908 21.8704C136.997 22.079 137.044 22.3037 137.044 22.5307C137.044 22.7578 136.997 22.9825 136.908 23.191C136.818 23.3996 136.686 23.5876 136.521 23.7437C136.356 23.8997 136.161 24.0205 135.948 24.0986C135.735 24.1767 135.508 24.2105 135.281 24.1979C135.055 24.2105 134.828 24.1767 134.615 24.0986C134.401 24.0205 134.206 23.8997 134.041 23.7437C133.876 23.5876 133.745 23.3996 133.655 23.191C133.565 22.9825 133.519 22.7578 133.519 22.5307C133.519 22.3037 133.565 22.079 133.655 21.8704C133.745 21.6619 133.876 21.4738 134.041 21.3178C134.206 21.1617 134.401 21.041 134.615 20.9629C134.828 20.8848 135.055 20.851 135.281 20.8636Z" fill="#A8C2BD"/>
</g>
<defs>
<clipPath id="clip0">
<rect width="157.805" height="31" fill="white" transform="translate(0.67746)"/>
</clipPath>
</defs>
</svg>
