<svg width="110" height="110" viewBox="0 0 110 110" fill="none" xmlns="http://www.w3.org/2000/svg">
<circle cx="55" cy="55" r="55" fill="#EDC5D0"/>
<mask id="mask0" mask-type="alpha" maskUnits="userSpaceOnUse" x="7" y="7" width="96" height="96">
<circle cx="55" cy="55" r="48" fill="white"/>
</mask>
<g mask="url(#mask0)">
<circle cx="55" cy="55" r="48" fill="#14453D"/>
<path d="M38.5691 51.1322C40.1054 50.9338 41.484 51.2279 42.7047 52.0144C43.9402 52.7707 44.8031 53.8673 45.2934 55.3041C45.9751 57.302 45.8416 59.1145 44.893 60.7415C43.9591 62.3383 42.2238 63.5695 39.687 64.4351L29.4839 67.9165L21.3721 44.1427L31.3732 40.7302C33.7753 39.9106 35.7961 39.8101 37.4357 40.4286C39.0978 41.0394 40.2544 42.299 40.9055 44.2071C41.411 45.6888 41.4318 47.0351 40.9678 48.2461C40.5262 49.4494 39.7267 50.4114 38.5691 51.1322ZM29.5211 52.4901L33.7976 51.0309C34.9875 50.625 35.7973 50.0604 36.2273 49.3372C36.672 48.584 36.7259 47.7135 36.3889 46.7257C36.0518 45.7379 35.4883 45.0781 34.6984 44.7461C33.9084 44.4141 32.8848 44.4626 31.6277 44.8916L27.4184 46.3278L29.5211 52.4901ZM37.4229 60.8843C38.68 60.4553 39.5534 59.8566 40.0431 59.088C40.525 58.297 40.586 57.3739 40.226 56.3188C39.866 55.2637 39.2423 54.5742 38.3548 54.2505C37.4822 53.8966 36.4173 53.9341 35.1602 54.3631L30.6815 55.8912L32.9105 62.4239L37.4229 60.8843ZM48.7491 39.012L50.8517 45.1744L59.2702 42.3019L60.5111 45.9387L52.0926 48.8111L54.2757 55.2092L63.7044 51.992L65.0027 55.7972L50.826 60.6344L42.7142 36.8606L56.8909 32.0234L58.1778 35.7949L48.7491 39.012ZM71.7878 49.1963L82.8665 45.4162L84.1763 49.255L67.8445 54.8275L66.6036 51.1908L71.874 31.1592L61.1994 34.8015L59.9011 30.9963L75.9298 25.5272L77.1707 29.164L71.7878 49.1963ZM37.3384 73.9131C37.9515 73.7039 38.5542 73.6645 39.1463 73.795C39.7385 73.9254 40.2674 74.229 40.7332 74.7057C41.2048 75.1706 41.5706 75.7842 41.8306 76.5462C42.0906 77.3083 42.1776 78.0218 42.0916 78.6868C42.0114 79.34 41.7768 79.8993 41.3879 80.3644C40.999 80.8296 40.4979 81.1668 39.8848 81.376C39.2716 81.5853 38.6968 81.6201 38.1602 81.4804C37.6293 81.3291 37.1883 81.0395 36.837 80.6117L38.5405 85.6045L36.688 86.2367L33.0208 75.489L34.8734 74.8569L35.3889 76.3679C35.4055 75.8146 35.5791 75.3202 35.9096 74.8847C36.249 74.4462 36.7252 74.1223 37.3384 73.9131ZM37.3117 75.7265C36.7511 75.9177 36.3526 76.2688 36.1162 76.7798C35.8856 77.279 35.8809 77.8527 36.102 78.5009C36.3202 79.1403 36.6746 79.5914 37.1653 79.8543C37.6617 80.1054 38.1902 80.1353 38.7508 79.9441C39.3289 79.7468 39.7304 79.4045 39.9552 78.917C40.1771 78.4208 40.1759 77.8442 39.9518 77.1873C39.7276 76.5303 39.3761 76.0733 38.8972 75.8162C38.4183 75.5591 37.8898 75.5292 37.3117 75.7265ZM42.9186 69.3834L46.2361 79.1063L44.3835 79.7384L41.066 70.0155L42.9186 69.3834ZM48.2481 70.1906C48.8613 69.9814 49.4362 69.9466 49.9728 70.0862C50.5093 70.2258 50.9533 70.5095 51.3046 70.9373L50.7891 69.4263L52.6285 68.7987L55.1122 76.0777L53.2727 76.7053L52.7527 75.1812C52.7361 75.7345 52.5596 76.2347 52.2233 76.682C51.8839 77.1205 51.4077 77.4443 50.7945 77.6535C50.1814 77.8628 49.5787 77.9021 48.9866 77.7717C48.3945 77.6412 47.8626 77.3435 47.391 76.8786C46.9252 76.4019 46.5623 75.7825 46.3023 75.0204C46.0423 74.2584 45.9524 73.5507 46.0326 72.8975C46.1187 72.2325 46.3561 71.6674 46.745 71.2022C47.134 70.737 47.635 70.3998 48.2481 70.1906ZM49.3777 71.6094C48.7996 71.8067 48.3996 72.1534 48.1777 72.6496C47.9559 73.1458 47.957 73.7224 48.1812 74.3794C48.4053 75.0363 48.7568 75.4933 49.2357 75.7504C49.7116 75.9988 50.2386 76.0243 50.8168 75.8271C51.3773 75.6358 51.773 75.2905 52.0036 74.7914C52.24 74.2804 52.2491 73.7052 52.0309 73.0658C51.8097 72.4176 51.4509 71.968 50.9545 71.7168C50.4639 71.454 49.9383 71.4182 49.3777 71.6094ZM56.7856 67.2776C57.6703 66.9757 58.456 66.957 59.1427 67.2214C59.8295 67.4858 60.3656 67.9679 60.751 68.6676L59.0167 69.2593C58.827 68.9329 58.5737 68.7064 58.2567 68.5798C57.9397 68.4533 57.5842 68.4573 57.19 68.5918C56.8747 68.6994 56.6548 68.8575 56.5304 69.0662C56.4061 69.2749 56.3872 69.5062 56.4739 69.7602C56.5426 69.9617 56.668 70.0998 56.85 70.1747C57.032 70.2495 57.24 70.286 57.4742 70.2844C57.7083 70.2827 58.0389 70.2628 58.4659 70.2247C59.0596 70.159 59.5512 70.138 59.9406 70.1616C60.3358 70.1734 60.7068 70.2864 61.0537 70.5005C61.4064 70.7029 61.6679 71.0538 61.8382 71.553C62.0504 72.175 61.977 72.7623 61.618 73.3151C61.2677 73.8649 60.6809 74.2802 59.8576 74.5612C58.9116 74.884 58.0821 74.9323 57.3693 74.7061C56.6535 74.4711 56.0998 73.9804 55.7082 73.2339L57.482 72.6287C57.6483 72.9729 57.9031 73.2038 58.2464 73.3214C58.5866 73.4302 58.9758 73.4099 59.4137 73.2604C59.7291 73.1528 59.9445 72.9962 60.0602 72.7905C60.1728 72.576 60.1873 72.3462 60.1036 72.1009C60.0318 71.8907 59.8991 71.7453 59.7054 71.6647C59.5204 71.5811 59.3065 71.5417 59.0636 71.5463C58.8294 71.548 58.4988 71.5679 58.0718 71.606C57.4869 71.6687 57.0027 71.697 56.6192 71.6909C56.2415 71.6731 55.8823 71.5659 55.5414 71.3693C55.2092 71.1697 54.9595 70.8246 54.7921 70.3341C54.5769 69.7034 54.6429 69.1088 54.9902 68.5503C55.3375 67.9917 55.9359 67.5675 56.7856 67.2776ZM67.2461 70.1625L67.7886 71.7524L66.8163 72.0841C66.0017 72.3621 65.3082 72.3787 64.7357 72.1339C64.172 71.8862 63.7332 71.3025 63.4194 70.3828L62.3435 67.2294L61.3318 67.5746L60.7983 66.0111L61.81 65.6659L61.1958 63.8658L63.0484 63.2337L63.6626 65.0338L65.2918 64.4779L65.8253 66.0414L64.1961 66.5973L65.281 69.7769C65.4005 70.1273 65.5543 70.3487 65.7423 70.441C65.9302 70.5333 66.1906 70.5227 66.5235 70.4091L67.2461 70.1625ZM65.715 62.0011C65.6134 61.7033 65.6363 61.4266 65.7838 61.1709C65.9282 60.9065 66.1713 60.716 66.5129 60.5994C66.8545 60.4829 67.1633 60.4851 67.4393 60.606C67.7123 60.7183 67.8996 60.9233 68.0012 61.2211C68.0998 61.5101 68.0769 61.7869 67.9324 62.0513C67.785 62.307 67.5404 62.4931 67.1988 62.6097C66.8572 62.7262 66.5499 62.7284 66.2769 62.6162C66.0009 62.4952 65.8136 62.2902 65.715 62.0011ZM68.4906 63.3864L70.9743 70.6654L69.1217 71.2975L66.638 64.0185L68.4906 63.3864ZM76.9072 68.641L73.4179 66.2818L74.5028 69.4614L72.6502 70.0935L69.3327 60.3707L71.1853 59.7386L73.0503 65.2044L74.4105 61.3665L76.6047 60.6178L74.7806 65.2887L79.1671 67.8699L76.9072 68.641ZM84.5466 57.908L87.0302 65.187L85.1776 65.8191L84.6755 64.3475C84.6502 64.9038 84.462 65.3983 84.1109 65.831C83.7656 66.252 83.3038 66.5611 82.7257 66.7584C81.8848 67.0453 81.1206 66.998 80.433 66.6165C79.7455 66.2351 79.2328 65.5494 78.8951 64.5596L77.4515 60.3289L79.291 59.7012L80.6628 63.7218C80.8601 64.2999 81.1629 64.7002 81.5713 64.9226C81.9767 65.1364 82.4334 65.1566 82.9415 64.9832C83.4758 64.8009 83.8423 64.4851 84.0411 64.0359C84.2399 63.5867 84.2302 63.0424 84.012 62.403L82.694 58.5401L84.5466 57.908ZM87.9817 54.0809L89.9867 60.7311L88.4232 61.2645L85.9451 54.7758L87.9817 54.0809ZM90.6046 61.8111L91.2636 63.7425L89.2665 64.4239L88.6075 62.4925L90.6046 61.8111Z" fill="#EDC5D0"/>
</g>
</svg>
